<svg width="100%" height="100%" viewBox="0 0 24 24" fill="none" xmlns="http://www.w3.org/2000/svg">
<path fill-rule="evenodd" clip-rule="evenodd" d="M20.9883 9.94714C21.0565 10.4952 20.6023 10.9452 20.05 10.9452H14.0501C13.4978 10.9452 13.0501 10.4974 13.0501 9.94516L13.05 3.94516C13.05 3.39288 13.5 2.9386 14.048 3.0068C17.6683 3.45733 20.5378 6.32683 20.9883 9.94714ZM14.55 4.6188C16.9344 5.18183 18.8133 7.06076 19.3763 9.44515H14.5501L14.55 4.6188Z" fill="#06c263"></path>
<path fill-rule="evenodd" clip-rule="evenodd" d="M18.9384 13.998C19.0066 13.4499 18.5523 13 18 13H11V5.99996C11 5.44768 10.55 4.99341 10.002 5.06161C6.05471 5.55283 3 8.91966 3 13C3 17.4182 6.58172 21 11 21C15.0803 21 18.4471 17.9453 18.9384 13.998ZM9.5 13C9.5 13.8284 10.1716 14.5 11 14.5H17.3264C16.6498 17.3662 14.0731 19.5 11 19.5C7.41015 19.5 4.5 16.5898 4.5 13C4.5 9.92687 6.63378 7.35017 9.5 6.67358V13Z" fill="#06c263"></path>
</svg>